<svg xmlns="http://www.w3.org/2000/svg" width="20" height="20" viewBox="0 0 20 20"><defs><style>.a{fill:#76a8c0;}.b{fill:#1b1c1c;}</style></defs><g transform="translate(-3702 1272)"><circle class="a" cx="10" cy="10" r="10" transform="translate(3702 -1272)"/><g transform="translate(-34 14)"><path class="b" d="M10,.5H0A.5.5,0,0,1-.5,0,.5.5,0,0,1,0-.5H10a.5.5,0,0,1,.5.5A.5.5,0,0,1,10,.5Z" transform="translate(3741 -1276)"/><path class="b" d="M4,4.5a.5.5,0,0,1-.354-.146l-4-4a.5.5,0,0,1,0-.707.5.5,0,0,1,.707,0l4,4A.5.5,0,0,1,4,4.5Z" transform="translate(3747 -1280)"/><path class="b" d="M4,4.5a.5.5,0,0,1-.354-.146l-4-4a.5.5,0,0,1,0-.707.5.5,0,0,1,.707,0l4,4A.5.5,0,0,1,4,4.5Z" transform="translate(3751 -1276) rotate(90)"/></g></g></svg>