<svg xmlns="http://www.w3.org/2000/svg" width="53.75" height="60" viewBox="0 0 53.75 60"><defs><style>.a{fill:#f8761f;}</style></defs><path class="a" d="M55,35.895A15.207,15.207,0,0,0,42.17,20.813v-7.22a5.355,5.355,0,0,0,3.283-5.028,5.457,5.457,0,1,0-10.91,0,5.359,5.359,0,0,0,3.282,5.028v7.172a14.946,14.946,0,0,0-4.972,1.6C29.637,19.91,19.173,12.317,13.19,7.735A6.07,6.07,0,0,0,7.328,0a6.124,6.124,0,0,0,0,12.247,6.064,6.064,0,0,0,3.12-.89l19,13.442-.005,0A15.31,15.31,0,0,0,27.72,45.022l-5.763,5.835a4.731,4.731,0,0,0-1.63-.292,4.639,4.639,0,0,0-3.318,1.382,4.765,4.765,0,0,0,0,6.693,4.745,4.745,0,0,0,6.65,0,4.72,4.72,0,0,0,1.372-3.34,4.494,4.494,0,0,0-.22-1.417L30.635,48a15.016,15.016,0,0,0,9.232,3.152A15.19,15.19,0,0,0,55,35.895ZM39.862,43.967a8.085,8.085,0,1,1,8.032-8.085A8.06,8.06,0,0,1,39.862,43.967Z" transform="translate(-1.25)"/></svg>