<svg xmlns="http://www.w3.org/2000/svg" width="60.108" height="53.674" viewBox="0 0 60.108 53.674"><defs><style>.a{fill:#61dafb;}</style></defs><g transform="translate(-1.4 -8.1)"><circle class="a" cx="5.473" cy="5.473" r="5.473" transform="translate(25.981 29.464)"/><path class="a" d="M52.242,25.911c-1.056-.384-2.16-.768-3.313-1.1.288-1.152.528-2.3.72-3.409,1.008-6.337-.1-10.8-3.169-12.53A5.964,5.964,0,0,0,43.408,8.1c-3.361,0-7.633,2.5-11.954,6.673C27.133,10.6,22.86,8.1,19.5,8.1a5.964,5.964,0,0,0-3.073.768c-3.073,1.776-4.177,6.241-3.169,12.53.192,1.1.432,2.256.72,3.409a33.481,33.481,0,0,0-3.313,1.1c-6,2.3-9.266,5.473-9.266,9.026s3.313,6.721,9.266,9.026c1.056.384,2.16.768,3.313,1.1-.288,1.152-.528,2.3-.72,3.409-1.008,6.337.1,10.8,3.169,12.53a5.964,5.964,0,0,0,3.073.768c3.409,0,7.681-2.5,11.954-6.673,4.321,4.177,8.594,6.673,11.954,6.673a5.964,5.964,0,0,0,3.073-.768c3.073-1.776,4.177-6.241,3.169-12.53-.192-1.1-.432-2.256-.72-3.409a33.48,33.48,0,0,0,3.313-1.1c6-2.3,9.266-5.473,9.266-9.026S58.243,28.216,52.242,25.911ZM45.136,11.269c1.968,1.152,2.641,4.7,1.824,9.746a28.91,28.91,0,0,1-.672,3.169,57.037,57.037,0,0,0-7.922-1.2,69.27,69.27,0,0,0-4.993-6.241c3.553-3.5,7.153-5.905,10.082-5.905a3.243,3.243,0,0,1,1.68.432ZM39.759,39.738c-.864,1.536-1.872,3.073-2.929,4.609-1.776.144-3.553.192-5.377.192-1.872,0-3.649-.048-5.377-.192q-1.584-2.3-2.881-4.609c-.912-1.584-1.776-3.217-2.544-4.8.768-1.584,1.632-3.217,2.544-4.8.864-1.536,1.872-3.073,2.929-4.609,1.776-.144,3.553-.192,5.377-.192,1.872,0,3.649.048,5.377.192q1.584,2.3,2.881,4.609c.912,1.584,1.776,3.217,2.544,4.8C41.488,36.521,40.672,38.106,39.759,39.738Zm3.985-1.584c.72,1.68,1.3,3.313,1.824,4.945-1.632.384-3.361.672-5.185.912.576-.912,1.2-1.872,1.728-2.881.576-1.008,1.1-2.016,1.632-2.977ZM31.454,51.164C30.3,49.916,29.2,48.572,28.141,47.18c1.1.048,2.208.1,3.313.1s2.208-.048,3.313-.1C33.71,48.572,32.606,49.916,31.454,51.164Zm-8.93-7.2c-1.824-.24-3.553-.528-5.185-.912.528-1.584,1.1-3.265,1.824-4.945.528.96,1.056,1.968,1.632,2.929.576,1.056,1.152,1.968,1.728,2.929ZM19.163,31.721c-.72-1.68-1.3-3.313-1.824-4.945,1.632-.384,3.361-.672,5.185-.912-.576.912-1.2,1.872-1.728,2.881C20.22,29.752,19.692,30.76,19.163,31.721ZM31.454,18.71c1.152,1.248,2.256,2.592,3.313,3.985-1.1-.048-2.208-.1-3.313-.1s-2.208.048-3.313.1C29.2,21.3,30.3,19.958,31.454,18.71ZM42.112,28.792l-1.728-2.881c1.824.24,3.553.528,5.185.912-.528,1.584-1.1,3.265-1.824,4.945C43.216,30.76,42.688,29.752,42.112,28.792ZM15.947,21.014c-.816-5.041-.144-8.594,1.824-9.746a3.243,3.243,0,0,1,1.68-.432c2.881,0,6.481,2.352,10.082,5.905a63.109,63.109,0,0,0-4.993,6.241,65.272,65.272,0,0,0-7.922,1.2c-.288-1.1-.48-2.16-.672-3.169ZM4.089,34.937c0-2.256,2.737-4.657,7.537-6.433A28.785,28.785,0,0,1,14.7,27.5a69.977,69.977,0,0,0,2.881,7.489A60.5,60.5,0,0,0,14.7,42.427c-6.625-1.92-10.61-4.8-10.61-7.489ZM17.771,58.606c-1.968-1.152-2.641-4.7-1.824-9.746a28.909,28.909,0,0,1,.672-3.169,57.038,57.038,0,0,0,7.922,1.2,69.27,69.27,0,0,0,4.993,6.241c-3.553,3.5-7.153,5.905-10.082,5.905a3.243,3.243,0,0,1-1.68-.432Zm29.19-9.746c.816,5.041.144,8.594-1.824,9.746a3.243,3.243,0,0,1-1.68.432c-2.881,0-6.481-2.352-10.082-5.905a63.109,63.109,0,0,0,4.993-6.241,65.272,65.272,0,0,0,7.922-1.2C46.577,46.8,46.769,47.852,46.961,48.86Zm4.321-7.489a28.783,28.783,0,0,1-3.073,1.008,69.978,69.978,0,0,0-2.881-7.489,60.5,60.5,0,0,0,2.881-7.441c6.625,1.92,10.61,4.8,10.61,7.489C58.819,37.194,56.035,39.594,51.282,41.37Z"/></g></svg>