<svg xmlns="http://www.w3.org/2000/svg" width="60" height="60" viewBox="0 0 60 60"><path d="M7,32a25,25,0,0,0,14.09,22.5L9.165,21.825A24.9,24.9,0,0,0,7,32Zm25.439,2.187-7.5,21.8a25.011,25.011,0,0,0,15.365-.4,2.237,2.237,0,0,1-.179-.345Zm16.438-3.448a13.166,13.166,0,0,0-2.061-6.894A11.709,11.709,0,0,1,44.36,17.98a4.329,4.329,0,0,1,4.2-4.437c.111,0,.216.013.324.02a24.994,24.994,0,0,0-37.77,4.7c.587.019,1.14.03,1.609.03,2.614,0,6.663-.318,6.663-.318a1.033,1.033,0,0,1,.16,2.06s-1.355.159-2.861.237l9.1,27.079,5.472-16.408-3.9-10.671c-1.347-.079-2.622-.237-2.622-.237a1.033,1.033,0,0,1,.159-2.06s4.128.318,6.584.318c2.614,0,6.664-.318,6.664-.318a1.033,1.033,0,0,1,.159,2.06s-1.356.159-2.861.237l9.034,26.873,2.579-8.172A28.809,28.809,0,0,0,48.877,30.738Zm5.229-8.162a23.6,23.6,0,0,1-1.9,8.954L44.569,53.607a25,25,0,0,0,9.369-33.6A19.151,19.151,0,0,1,54.106,22.576ZM32,2A30,30,0,1,0,62,32,30,30,0,0,0,32,2ZM42.976,57.985A28.221,28.221,0,1,1,55.385,47.766,28.163,28.163,0,0,1,42.976,57.985Z" transform="translate(-2 -2)"/></svg>