<svg xmlns="http://www.w3.org/2000/svg" width="100" height="100" viewBox="0 0 100 100"><path d="M98,48h-.12a50,50,0,0,0,0,100H98A50,50,0,0,0,98,48Zm2,29.928a74.125,74.125,0,0,0,15.433-2.043A89.716,89.716,0,0,1,118,96.029H100Zm0-4.014V52.327c5.385,1.49,10.865,8.678,14.327,19.712A70.2,70.2,0,0,1,100,73.913ZM96,52.279V73.938a69.509,69.509,0,0,1-14.447-1.923C85.067,60.909,90.572,53.673,96,52.279Zm0,25.649V96H77.88a89.716,89.716,0,0,1,2.572-20.144A75.285,75.285,0,0,0,96,77.928ZM73.841,96H52.063A45.7,45.7,0,0,1,62.471,68.841,72.69,72.69,0,0,0,76.606,74.8,94.309,94.309,0,0,0,73.841,96Zm0,3.99a93.171,93.171,0,0,0,2.74,21.2,74.857,74.857,0,0,0-14.135,5.962A45.857,45.857,0,0,1,52.038,100Zm4.038,0H96v18.053a73.7,73.7,0,0,0-15.553,2.091A89.716,89.716,0,0,1,77.88,100ZM96,122.062v21.683c-5.433-1.418-10.937-8.63-14.447-19.736A67.942,67.942,0,0,1,96,122.062ZM100,143.673V122.038a70.662,70.662,0,0,1,14.351,1.9C110.861,135,105.4,142.183,100,143.673Zm0-25.625V100h18a89.679,89.679,0,0,1-2.572,20.12A74.136,74.136,0,0,0,100,118.048ZM122.014,100h21.923a45.763,45.763,0,0,1-10.409,27.163,73.919,73.919,0,0,0-14.255-6.01A92.739,92.739,0,0,0,122.014,100Zm0-3.99A94.358,94.358,0,0,0,119.3,74.827a74.5,74.5,0,0,0,14.231-5.986,45.713,45.713,0,0,1,10.409,27.188H122.014Zm8.774-30.24a69.524,69.524,0,0,1-12.572,5.192c-2.332-7.524-5.625-13.654-9.5-17.692a46.233,46.233,0,0,1,22.067,12.5ZM87.135,53.313c-3.87,4.014-7.139,10.144-9.447,17.62a68.292,68.292,0,0,1-12.452-5.168A45.706,45.706,0,0,1,87.135,53.313Zm-21.923,76.9a69.005,69.005,0,0,1,12.452-5.168c2.332,7.5,5.6,13.606,9.471,17.644a45.739,45.739,0,0,1-21.923-12.476Zm43.51,12.524c3.894-4.038,7.163-10.168,9.519-17.716a69.524,69.524,0,0,1,12.572,5.192,46.153,46.153,0,0,1-22.091,12.524Z" transform="translate(-48 -48)"/></svg>